<?xml version="1.0" encoding="UTF-8"?>
<svg version="1.1" xmlns="http://www.w3.org/2000/svg" width="111" height="112">
<path d="M0 0 C1 1 1 1 1.09765625 3.94140625 C1.08605469 5.13636719 1.07445313 6.33132813 1.0625 7.5625 C1.05347656 8.76003906 1.04445313 9.95757812 1.03515625 11.19140625 C1.02355469 12.11824219 1.01195313 13.04507812 1 14 C0.02546875 13.84144531 -0.9490625 13.68289062 -1.953125 13.51953125 C-17.58394212 11.30843828 -30.27014481 13.2067456 -43.5546875 22.08203125 C-51.32254276 28.17471006 -56.63573084 38.26484477 -58 48 C-58.79285184 58.04279002 -57.67055438 66.315703 -51.8125 74.625 C-47.53100528 81.22167335 -48.4946073 88.45654598 -49 96 C-59.82324833 87.25814558 -68.09857384 76.51669454 -69.83984375 62.23828125 C-71.0791636 44.9180306 -68.31739215 30.12375206 -56.75 16.625 C-41.46598797 0.90208897 -21.42949647 -5.97215475 0 0 Z " fill="#61CFFF" transform="translate(73,5)"/>
<path d="M0 0 C5.17192431 0.93522814 7.76229792 4.04056016 11 8 C18.11015931 18.59356397 20.35725663 27.16369989 20.31567383 39.85107422 C20.31251802 41.86350946 20.33600903 43.87446493 20.36132812 45.88671875 C20.36853228 60.3382474 16.30286159 70.72369124 6.25 81.25 C-4.01596384 91.04026148 -15.80813054 96.50664453 -30.0625 96.40039062 C-31.196875 96.37138672 -32.33125 96.34238281 -33.5 96.3125 C-34.6653125 96.30283203 -35.830625 96.29316406 -37.03125 96.28320312 C-45.4880764 96.1706412 -45.4880764 96.1706412 -49 95 C-49.33 91.04 -49.66 87.08 -50 83 C-48 82 -48 82 -44.75 82.9375 C-33.05808932 86.00319086 -21.14674925 84.13623535 -10.46875 78.71484375 C-0.81294978 72.77917204 6.07573827 63.97401784 9.25 53.125 C11.2199708 43.98504539 10.03771466 34.78926999 7 26 C5.53975409 23.76006541 5.53975409 23.76006541 3.875 21.75 C-0.82992588 15.56605039 0.01708167 7.43906828 0 0 Z " fill="#5FCFFF" transform="translate(91,16)"/>
<path d="M0 0 C1.89712018 1.59496871 2.89655725 2.52856763 3.43579102 4.98608398 C3.83841903 18.34496406 3.06929993 28.53353095 -6.25 38.9375 C-14.5725347 46.51860622 -23.55369976 48.27981735 -34.42578125 48.234375 C-39.10324418 47.92765612 -42.68603706 46.78508811 -47 45 C-47 41.7 -47 38.4 -47 35 C-46.030625 35.495 -45.06125 35.99 -44.0625 36.5 C-36.39156303 39.33045268 -26.68752065 39.49977135 -18.88671875 37.00390625 C-12.01362917 33.32226646 -7.81503271 27.36018432 -5.33203125 20.02734375 C-4.92135818 17.51982229 -5.09228455 15.2217006 -5.25 12.6875 C-5.34399537 6.84412132 -3.83161979 4.31057226 0 0 Z " fill="#6CD2FF" transform="translate(89,45)"/>
<path d="M0 0 C0 2.64 0 5.28 0 8 C-0.99 7.505 -1.98 7.01 -3 6.5 C-11.09722286 3.50316307 -21.73156328 3.45991323 -29.625 7 C-35.42916896 10.45905019 -38.80849709 15.04961184 -41.3125 21.25 C-41.92259127 24.57777056 -42.17973562 27.69315085 -42.375 31.0625 C-42.73388923 36.26313118 -43.4702113 39.14932141 -47 43 C-47.66 43 -48.32 43 -49 43 C-50.72643681 39.54712639 -50.22701028 35.67979889 -50.25 31.875 C-50.270625 31.04484375 -50.29125 30.2146875 -50.3125 29.359375 C-50.36584153 20.85140127 -47.94786729 13.27358384 -42 7 C-30.00170079 -2.9916871 -14.68806211 -7.34403106 0 0 Z " fill="#6CD2FF" transform="translate(74,27)"/>
<path d="M0 0 C4.7990969 0.78741659 7.87914943 2.49516926 12 5 C12 10.28 12 15.56 12 21 C10.68 20.34 9.36 19.68 8 19 C7.29359375 18.73703125 6.5871875 18.4740625 5.859375 18.203125 C3.30333168 17.04817209 1.80764038 16.17347236 0 14 C-0.70907394 9.2674686 -0.46280587 4.75018801 0 0 Z " fill="#71D4FF" transform="translate(77,7)"/>
<path d="M0 0 C9.63570128 3.85428051 9.63570128 3.85428051 12 7 C12.603816 11.0625164 12.40956334 14.92386963 12 19 C7.2009031 18.21258341 4.12085057 16.50483074 0 14 C0 9.38 0 4.76 0 0 Z " fill="#70D4FF" transform="translate(27,90)"/>
<path d="M0 0 C4.00902419 1.3363414 4.80891895 3.49427032 7 7 C7.33 7.33 7.66 7.66 8 8 C8.07226502 9.85287502 8.0838122 11.70833878 8.0625 13.5625 C8.05347656 14.57441406 8.04445313 15.58632812 8.03515625 16.62890625 C8.02355469 17.41136719 8.01195312 18.19382812 8 19 C4.69831248 17.5724411 2.60095359 15.84483943 0.1875 13.1875 C-0.43769531 12.52105469 -1.06289063 11.85460937 -1.70703125 11.16796875 C-3 9 -3 9 -2.765625 6.3828125 C-2.03329743 4.10362974 -1.16141865 2.09055356 0 0 Z " fill="#79D6FF" transform="translate(31,68)"/>
<path d="M0 0 C5.63689034 1.32632714 7.93185683 5.46631765 11 10 C10.01 12.31 9.02 14.62 8 17 C4.01584115 15.67194705 3.11946991 13.7735909 1.0078125 10.27734375 C-0.5772233 6.69565433 -0.34521314 3.86638722 0 0 Z " fill="#79D6FF" transform="translate(77,30)"/>
<path d="M0 0 C1.984375 1.484375 1.984375 1.484375 4 4 C4.2906124 6.89449949 4.38186045 9.37949935 4.25 12.25 C4.23195313 12.99507812 4.21390625 13.74015625 4.1953125 14.5078125 C4.14835649 16.33909701 4.07661652 18.16971649 4 20 C2.5078125 18.9375 2.5078125 18.9375 1 17 C0.7421875 13.75 0.7421875 13.75 0.875 10 C1.08672201 4.90748941 1.08672201 4.90748941 0 0 Z " fill="#AFE6FF" transform="translate(20,81)"/>
<path d="M0 0 C0.66 0 1.32 0 2 0 C2 2.64 2 5.28 2 8 C-0.64 7.01 -3.28 6.02 -6 5 C-2 4 -2 4 0 5 C0 3.35 0 1.7 0 0 Z " fill="#B0E7FF" transform="translate(72,27)"/>
</svg>
